<svg width="47" height="47" viewBox="0 0 47 47" fill="none" xmlns="http://www.w3.org/2000/svg">
<path d="M15.6667 23.5L15.6667 15.6667C15.6667 11.3404 19.1738 7.83334 23.5 7.83334V7.83334C27.8262 7.83334 31.3333 11.3404 31.3333 15.6667L31.3333 23.5" stroke="#222222" stroke-linecap="round"/>
<path d="M7.52768 21.2928C7.67276 19.5519 7.74529 18.6815 8.31938 18.1532C8.89347 17.625 9.76693 17.625 11.5139 17.625H35.4861C37.2331 17.625 38.1065 17.625 38.6806 18.1532C39.2547 18.6815 39.3272 19.5519 39.4723 21.2928L40.9445 38.9589C41.029 39.9725 41.0712 40.4792 40.7741 40.8021C40.477 41.125 39.9685 41.125 38.9514 41.125H8.0486C7.03155 41.125 6.52302 41.125 6.22592 40.8021C5.92882 40.4792 5.97105 39.9724 6.05551 38.9589L7.52768 21.2928Z" stroke="#222222"/>
</svg>
