<svg width="47" height="47" viewBox="0 0 47 47" fill="none" xmlns="http://www.w3.org/2000/svg">
<path d="M6.375 15.6666C6.375 13.8061 6.37606 12.4611 6.51394 11.4356C6.64988 10.4244 6.91052 9.79917 7.37572 9.33397C7.84092 8.86877 8.46619 8.60813 9.47731 8.47219C10.5028 8.33431 11.8479 8.33325 13.7083 8.33325H33.2917C35.1521 8.33325 36.4972 8.33431 37.5227 8.47219C38.5338 8.60813 39.1591 8.86877 39.6243 9.33397C40.0895 9.79917 40.3501 10.4244 40.4861 11.4356C40.6239 12.4611 40.625 13.8061 40.625 15.6666V32.7916H6.375V15.6666Z" stroke="#222222"/>
<path d="M7.18056 32.7917C6.18337 32.7917 5.375 33.6001 5.375 34.5973C5.375 36.3155 6.76789 37.7084 8.48611 37.7084H38.5139C40.2321 37.7084 41.625 36.3155 41.625 34.5973C41.625 33.6001 40.8166 32.7917 39.8194 32.7917H7.18056Z" stroke="#222222"/>
</svg>
