<svg width="37" height="35" viewBox="0 0 37 35" fill="none" xmlns="http://www.w3.org/2000/svg">
<path d="M10.6667 16.4999L10.6667 8.66659C10.6667 4.34036 14.1738 0.833253 18.5 0.833252C22.8262 0.833252 26.3333 4.34035 26.3333 8.66658V16.4999M3.04861 34.1249H33.9514C34.9685 34.1249 35.477 34.1249 35.7741 33.802C36.0712 33.4791 36.029 32.9724 35.9445 31.9588L34.4723 14.2927C34.3273 12.5518 34.2547 11.6814 33.6806 11.1532C33.1066 10.6249 32.2331 10.6249 30.4861 10.6249H6.51388C4.76695 10.6249 3.89348 10.6249 3.3194 11.1532C2.74531 11.6814 2.67277 12.5518 2.5277 14.2927L1.05552 31.9588C0.971061 32.9724 0.92883 33.4791 1.22593 33.802C1.52303 34.1249 2.03156 34.1249 3.04861 34.1249Z" stroke="#222222" stroke-linecap="round"/>
</svg>
