<svg width="33" height="41" viewBox="0 0 33 41" fill="none" xmlns="http://www.w3.org/2000/svg">
<path d="M22.375 31.75H10.625V32.75H22.375V31.75ZM1.33334 6.91663C1.33334 5.48828 1.33441 4.46732 1.43872 3.69144C1.5411 2.92994 1.73462 2.47981 2.06558 2.14886C2.39653 1.8179 2.84665 1.62438 3.60815 1.522C4.38403 1.41769 5.405 1.41663 6.83334 1.41663H26.1667C27.595 1.41663 28.616 1.41769 29.3919 1.522C30.1534 1.62438 30.6035 1.8179 30.9344 2.14886C31.2654 2.47981 31.4589 2.92994 31.5613 3.69143C31.6656 4.46731 31.6667 5.48828 31.6667 6.91663V34.0833C31.6667 35.5116 31.6656 36.5326 31.5613 37.3085C31.4589 38.07 31.2654 38.5201 30.9344 38.8511C30.6035 39.182 30.1534 39.3755 29.3919 39.4779C28.616 39.5822 27.595 39.5833 26.1667 39.5833H6.83335C5.405 39.5833 4.38403 39.5822 3.60815 39.4779C2.84665 39.3755 2.39653 39.182 2.06558 38.8511C1.73462 38.5201 1.5411 38.07 1.43872 37.3085C1.33441 36.5326 1.33334 35.5116 1.33334 34.0833V6.91663Z" stroke="#222222"/>
</svg>
